# xmcd CD database file
#
# Track frame offsets:
#	150
#	18405
#	37813
#	53559
#	72125
#	93686
#	115315
#	137384
#	159526
#	183715
#	202869
#	222723
#	246052
#	267987
#	286021
#	305939
#
# Disc length: 4387 seconds
#
# Revision: 10
# Processed by: cddbd v1.5.2PL0 Copyright (c) Steve Scherf et al.
# Submitted via: CDex 1.70beta3
#
DISCID=e7112110
DTITLE=さくら(丹下桜) - 10th Anniversary Best Sakura Selection（Disc.1）
DYEAR=2007
DGENRE=JPop
TTITLE0=春の宵 ～夢のはじまり～
TTITLE1=every good morning
TTITLE2=空と風ときみとぼく
TTITLE3=美ら唄
TTITLE4=めぐり逢うわたしたち
TTITLE5=given A Power
TTITLE6=Be ambitious!
TTITLE7=桜の花が咲く頃に
TTITLE8=桜花道
TTITLE9=翼
TTITLE10=Loving you
TTITLE11=MEMORIAL SAVER
TTITLE12=You're my Angel
TTITLE13=merry＊
TTITLE14=プラチナ・スノウ
TTITLE15=光りの勇者
EXTD=YEAR: 2007
EXTT0=
EXTT1=
EXTT2=
EXTT3=
EXTT4=
EXTT5=
EXTT6=
EXTT7=
EXTT8=
EXTT9=
EXTT10=
EXTT11=
EXTT12=
EXTT13=
EXTT14=
EXTT15=
PLAYORDER=
